<svg version="1.2" xmlns="http://www.w3.org/2000/svg" viewBox="0 0 300 300" width="300" height="300">
	<title>dk-blog-logo-svg</title>
	<style>
		.s0 { opacity: 0;fill: #000000 } 
		.s1 { fill: #000000 } 
		.s2 { fill: #000000;stroke: #000000;stroke-width: .1 } 
		.s3 { fill: #000000;stroke: #000000;stroke-width: 0 } 
	</style>
	<g id="background">
	</g>
	<g id="shape_F8x96Q2Bcx">
		<g id="Layer">
			<path id="Layer" class="s0" d="m6.5 96.9h188.9v102.4h-188.9z"/>
			<g id="图层_1">
				<g id="Layer">
					<path id="Layer" class="s1" d="m121.8 122.8h22.5l-4.9 11.5c-1.2 2.9-4 4.7-7.1 4.7h-19.2c-2 0-3.3-2-2.6-3.8l3-6.9c1-2.5-0.8-5.2-3.5-5.2h-47.7c-5.5 0-9.3-5.6-7.1-10.7l2.3-5.5h53.7c5.6 0 9.3 5.6 7.1 10.7-1 2.5 0.8 5.2 3.5 5.2z"/>
					<path id="Layer" class="s1" d="m102.5 148.1h22.5l-4.8 11.6c-1.3 2.8-4 4.6-7.1 4.6h-19.3c-2 0-3.3-2-2.5-3.8l2.9-6.9c1-2.4-0.8-5.2-3.5-5.2h-47.7c-5.5 0-9.3-5.6-7.1-10.7l2.3-5.5h53.7c5.6 0 9.3 5.6 7.1 10.7-1 2.5 0.8 5.3 3.5 5.2z"/>
					<path id="Layer" class="s1" d="m83.7 173.1h101.7l-4.9 11.5c-1.2 2.9-4 4.7-7.1 4.7h-98.4c-2 0-3.3-2-2.6-3.8l3-6.9c1-2.5-0.8-5.2-3.5-5.2h-47.7c-5.5 0-9.3-5.7-7.1-10.7l2.3-5.6h53.8c5.5 0 9.2 5.7 7.1 10.8-1.1 2.4 0.7 5.2 3.4 5.2z"/>
				</g>
			</g>
		</g>
	</g>
	<g id="shape_eqHM3ZoODr">
		<g id="Layer">
			<g id="Layer">
				<g id="Layer">
					<path id="Layer" fill-rule="evenodd" class="s2" d="m150.1 120.4h44.7l-4.7 34.6q0 2-1.7 3.3-1.6 1.4-3.6 1.4h-37.3l4.6-36.7zm31.4 6.7h-16.1l-3.9 25.9h15.9z"/>
					<path id="Layer" class="s2" d="m203.7 120.4h16l-2 11.9 14-11.9h15.3l-22.6 20 19.9 19.3h-15.9l-12.7-13.4-2 13.4h-12.7l4.7-36.7z"/>
				</g>
			</g>
		</g>
	</g>
	<g id="shape_bIpssDje3p">
		<g id="Layer">
			<g id="Layer">
				<g id="Layer">
					<path id="Layer" fill-rule="evenodd" class="s3" d="m197.6 187.8h-6v-14.7h6q2.7 0 4.6 2.2 1.9 2.1 1.9 5.1 0 3.1-1.9 5.2-1.9 2.2-4.6 2.2zm0-12h-3.3v9.2h3.3q1.6 0 2.7-1.3 1.1-1.3 1.1-3.3 0-1.9-1.1-3.2-1.1-1.4-2.7-1.4z"/>
					<path id="Layer" class="s3" d="m214.1 187.8l-5.6-6.2v6.2h-2.7v-14.7h2.7v6.2l5.6-6.2h3.7l-6.7 7.3 6.7 7.4z"/>
					<path id="Layer" class="s3" d=""/>
					<path id="Layer" fill-rule="evenodd" class="s3" d="m234.1 187.8h-6.7v-14.7h6.2q1.8 0 3 1.3 1.2 1.2 1.2 2.9 0 1.5-0.8 2.5 0.2 0.2 0.3 0.3 1.3 1.3 1.3 3.2 0 1.9-1.3 3.2-1.3 1.3-3.2 1.3zm0-6.3h-4v3.5h4q0.8 0 1.3-0.5 0.5-0.5 0.5-1.2 0-0.7-0.5-1.2-0.5-0.6-1.3-0.6zm-0.5-5.7h-3.5v3h3.5q0.6 0 1.1-0.4 0.4-0.4 0.4-1.1 0-0.6-0.4-1-0.5-0.5-1.1-0.5z"/>
					<path id="Layer" class="s3" d="m243 173.1v11.9h6.2v2.8h-8.9v-14.7z"/>
					<path id="Layer" fill-rule="evenodd" class="s3" d="m263.3 175.1q2.2 2.2 2.2 5.3 0 3.2-2.2 5.4-2.2 2.2-5.3 2.2-3.2 0-5.4-2.2-2.2-2.2-2.2-5.4 0-3.1 2.2-5.3 2.2-2.2 5.4-2.2 3.1 0 5.3 2.2zm-8.8 1.9q-1.4 1.4-1.4 3.4 0 2.1 1.4 3.5 1.4 1.4 3.5 1.4 2 0 3.4-1.4 1.4-1.4 1.4-3.5 0-2-1.4-3.4-1.4-1.4-3.4-1.4-2.1 0-3.5 1.4z"/>
					<path id="Layer" class="s3" d="m273.8 179.1h8q0.1 0.7 0.1 1.3 0 3.2-2.2 5.4-2.2 2.2-5.4 2.2-3.1 0-5.3-2.2-2.2-2.2-2.2-5.4 0-3.1 2.2-5.3 2.2-2.2 5.3-2.2 3.6 0 5.9 2.7l-2.1 1.7q-1.5-1.7-3.8-1.7-2 0-3.4 1.4-1.4 1.4-1.4 3.4 0 2.1 1.4 3.5 1.4 1.4 3.4 1.4 2.1 0 3.5-1.4 0.9-0.9 1.2-2.1h-5.2z"/>
				</g>
			</g>
		</g>
	</g>
</svg>